<svg version="1.1" id="Layer_1" xmlns="http://www.w3.org/2000/svg" x="0" y="0" viewBox="0 0 1034 722" style="enable-background:new 0 0 1034 722" xml:space="preserve"><style>.st0{fill:#fff}</style><g id="meanne"><path class="st0" d="M59.2 517.1v.8h.4c-.4 0-.4-.4-.4-.8zm0 0v.8h.4c-.4 0-.4-.4-.4-.8z"/><path class="st0" d="m1024.4 568.3-.4-.8c-2-6.4-6-12-10.8-16.8-5.2-4.8-11.2-8-17.6-9.6-6.4-2-12.8-2.8-19.2-2.4-12.8.4-24.8 4.4-36 10-22.4 10.8-40.8 26.4-59.2 41.6-12.4 10.4-25.2 20.8-37.6 30.8-6-5.6-10.4-12-13.6-19.6-1.2-3.6-2-7.6-2.8-11.6-2-9.2-.8-24.4 2.4-35.2l.8-2.8h2.8c9.2 0 22.8-9.2 30-20 2.4-4 5.6-10.4 6-13.2 1.6-6-1.6-11.6-9.6-15.6-6-3.2-13.6-4-19.6-1.2-7.2 2.8-13.2 8.4-18.4 14-9.2 8.7-14 19.6-16.3 31.3-2.7 4.4-5.3 8.8-8.1 13-2 2.8-3.6 6.4-5.6 9.6-9.6 16.4-20.4 33.6-36 44.4l-1.6 1.2 1.6-6c5.2-17.6 15.6-47.6 24-69.2 10-25.2 13.2-36.4 14-47.6.4-8-1.2-12.8-5.2-18-4-4.8-8-6.4-12.4-5.2-8.8 2-21.2 11.6-34.8 26.8-8.4 10-16.8 21.6-25.2 36-2.8 4.4-4.4 7.6-4.4 7.2.8-1.6 4.8-23.2 5.6-26.8.8-5.6.4-9.6-.8-12.4-2.4-5.6-11.2-10-15.2-8-1.6 1.2-12.4 42-12.4 42s-.4 3.2-1.2 6.8c-.1.4-.1.9-.2 1.3-3.7 6.1-7.2 12.1-11 17.9-2 2.8-3.6 6.4-5.6 9.6-9.6 16.4-20.4 33.6-36 44.4l-1.6 1.2 1.6-6c5.2-17.6 15.6-47.6 24-69.2 10-25.2 13.2-36.4 14-47.6.4-8-1.2-12.8-5.2-18-4-4.8-8-6.4-12.4-5.2-8.8 2-21.2 11.6-34.8 26.8-8.4 10-16.8 21.6-25.2 36-2.8 4.4-4.4 7.6-4.4 7.2.8-1.6 4.8-23.2 5.6-26.8.8-5.6.4-9.6-.8-12.4-2.4-5.6-11.2-10-15.2-8-1.6 1.2-12.4 42-12.4 42s-.3 2.5-.9 5.6c-.8 1.9-1.5 4.1-2.2 6-1.2 4.4-3.2 8.8-4.8 12.8-3.6 8-8 16-13.2 23.2-4.8 6.8-10.8 13.2-17.2 17.2-3.2 1.6-6.4 3.2-10 3.6-2 .4-3.6.4-5.6.4-1.2 0-2.4 0-3.6-.4-.8 0-1.6-.8-2.4-1.6-.8-.8-1.2-2-2-3.2-1.6-2.8-2.8-6.4-3.2-10.4-.8-4-1.2-8.4-1.2-12.8s0-8.4.4-12.8c.8-8.8 2-17.6 3.6-26.8.4-1.6.8-3.6 1.2-4.8.8-5.2 2-10.4 3.2-15.2.4-2.4.8-4.4 1.6-6.4V507c1.2-4.4 2.4-8.8 3.2-13.6 2.4-9.6 2.4-10.4.4-12.8-1.6-1.6-4-3.6-6.4-4.4-1.6-.8-2.8-2-5.2-4.4-8.8-10.4-23.2-16.8-36.4-16.8-6.4 0-10.8.8-15.2 3.6-10 4.8-20.4 18-28 36-6.8 14-10.4 27.2-12 44-.2 2.3-.4 5.1-.4 8.1-13.3 17.8-38.9 50.8-56 51.1-9.6 0-8.8-27.2-4-43.6l.8-2.8h2.8c9.2 0 22.8-9.2 30-20 2.4-4 5.6-10.4 6-13.2 1.6-6-1.6-11.6-9.6-15.6-6-3.2-13.6-4-19.6-1.2-7.2 2.8-13.2 8.4-18.4 14-10.6 10-15.4 22.8-17.1 36.5-40.7 66.6-57.4 88.6-81.7 108.6-5.2 4.4-15.6 11.2-16.4 11.2s0-9.2 1.2-16c6.4-28.8 18-62 38.4-110.4 24-57.6 33.2-83.2 39.6-108.8 5.2-22 5.6-37.6.8-48.4-3.2-8-10-14.4-18.8-18-3.6-1.2-4.8-1.6-8.8-1.6-5.2 0-8.8.8-16 3.6-10.8 4-22 10.4-35.2 20-20 14.8-37.2 32.4-54.8 56l-4.4 6 .4-2.8c1.6-15.6.4-25.6-3.2-31.6-5.6-8-23.2-14-30.8-10.4-4.4 1.6-12.8 9.2-22.4 19.2-21.6 23.2-34.4 43.2-49.6 78-3.2 6.8-5.2 10-5.2 9.2 0-2 3.2-26.8 5.2-41.2 3.2-23.2 6.4-54 6-60.4-.4-6.4-3.6-9.6-11.6-12.4-8.8-2.8-14.8-2.4-18 1.6-2 2.4-10.4 20.8-13.6 30-5.2 15.6-6.4 22.4-13.2 86.4-1.2 11.6-2.8 27.2-3.6 34.8-3.2 28.8-4.4 43.2-4.4 58.4 0 20 2 26.4 8.4 28.8 2.4 1.2 8.4 2 12 2 3.6 0 7.6-.8 8.8-2s6-13.6 7.2-19.2c2.4-8.4 6-26.4 8.4-40 1.2-6 2-9.6 7.2-24.8 7.2-21.6 9.2-27.6 15.6-42.8 7.6-16.8 13.6-27.2 22-40.4 8.4-11.6 17.2-22.8 25.2-32 4.4-4.4 12.8-12.4 13.2-12 .4 0-3.6 11.6-6.4 18.8-7.2 18-14.8 48.8-18 67.6-1.2 8.4-1.2 23.6 0 28.4 2 6.4 4 8.8 10.8 11.2 4.4 1.6 8.4 2.4 12.8 2.4 5.2 0 6.4-.8 10-6.4 1.6-2.4 3.6-6 4.8-8.4 3.6-8.4 9.2-27.2 14.4-48 1.6-7.6 2-8.4 5.2-14.4 13.6-23.2 34-50 53.6-68.8 5.2-5.6 16-14.8 20.8-18 15.6-11.6 31.6-18.4 41.6-18h2.8l.4 1.6c1.2 4-.4 14.4-3.6 26.4-5.2 21.6-15.6 46-34.8 82.8-3.6 6.8-10 19.2-14.4 27.2-27.2 53.2-38.4 80.4-44 103.6-5.2 22.4-4.8 38 2.4 49.2 5.2 8.4 14.4 13.6 26 15.6 8.4 1.6 16.4.8 22.8-2 15.2-6.4 31.2-22.4 53.2-52.8 8.2-11.3 21-31 32.7-49.8.7 2.9 1.5 5.8 2.6 8.6 3.2 7.2 7.2 14.8 13.6 19.6 2.8 2.8 6.4 4.4 10.4 4.4 18.8 0 42.8-26.6 59-46.6 2.9 12.9 8.9 19.9 20.2 23.8 4.4 1.6 11.2 2 14.8.8 6-2 12-6.8 18.8-15.6 2.4-5.6 15.2-22.4 15.2-21.6v.8l2.4-2.4c-.4 3.6-.8 7.2-.8 10.8-.4 4.8-.4 9.6 0 14.8.4 4.8.8 10 1.6 15.2 1.2 4.8 2.8 10.4 5.6 15.6 1.6 2.8 3.2 5.2 5.6 7.2 2.8 2.4 6 4 9.2 5.2s6.8 1.2 10 1.2c2.8 0 5.6 0 8.8-.8 5.6-1.6 11.2-4 15.6-6.8 4.8-3.2 8.8-6.8 12.4-10.8 3.2-4 6-8 8.4-12.4 1.3-2.2 2.5-4.3 3.6-6.5.2 1.6.5 2.9.8 3.7.8 2 2.4 4.4 4.8 5.6 3.2 1.6 5.2 2 6.4.8.8-.8 2-4.4 7.2-17.6 2.8-7.6 8.4-20.4 11.6-27.2 12.8-23.6 31.6-47.2 46.8-58.8 6-4.8 14.8-9.6 14.8-8.4 0 .8-6.4 16.4-11.2 26.4-2 4.8-6.4 14-9.2 20-10 20-14.8 31.6-18.8 45.2-3.2 11.6-4.4 18.8-4.4 27.2 0 7.6.4 10.4 2.8 15.6 1.6 4.4 6.4 9.6 11.2 12 3.2 2 3.6 2 6.4 2 2.8 0 3.6-.4 5.6-1.6 5.2-2.8 10.4-8.4 18.8-20.4 8.5-12.4 18.2-27.4 26.5-40.5-.1 1.6-.1 3.3-.1 4.9 0 5.6.8 12.4 1.6 14.8.8 2 2.4 4.4 4.8 5.6 3.2 1.6 5.2 2 6.4.8.8-.8 2-4.4 7.2-17.6 2.8-7.6 8.4-20.4 11.6-27.2 12.8-23.6 31.6-47.2 46.8-58.8 6-4.8 14.8-9.6 14.8-8.4 0 .8-6.4 16.4-11.2 26.4-2 4.8-6.4 14-9.2 20-10 20-14.8 31.6-18.8 45.2-3.2 11.6-4.4 18.8-4.4 27.2 0 7.6.4 10.4 2.8 15.6 1.6 4.4 6.4 9.6 11.2 12 3.2 2 3.6 2 6.4 2 2.8 0 3.6-.4 5.6-1.6 5.2-2.8 10.4-8.4 18.8-20.4 8-11.6 17.1-25.7 25-38.2.4 4 1.2 7.9 2.6 11.8.8 9.6 2.4 18.8 6.4 28s10.4 17.2 17.6 24c-.8.8-2 1.6-3.2 2.4-8.4 6.4-17.6 12.8-26.4 18.4-3.6-1.6-6.4-4-9.6-5.2-22.4-10.4-46.4-16-70.4-17.6-24.4-2-48.8 0-72.4 6.4-12 2.8-23.6 6.8-34.8 12-5.2 2.8-10.8 5.6-15.6 9.2-5.2 3.6-10 7.6-14.4 12.4-2.4 2.8-4.4 5.6-6 9.2-1.2 3.6-1.6 8.4 0 12.4 1.2 4.4 4 7.2 7.2 9.6 2.8 2 6 3.6 9.2 4.4 12.4 4.4 24.8 5.2 37.2 5.6 24 .4 48-2 72-6.8 23.6-5.2 46.8-13.2 68.8-23.6 10-4.4 19.6-10 28.8-15.6 15.6 8.4 30.4 18.8 43.2 31.6 2 2 5.2 2 7.2 0 2.4-2 2.4-5.6 0-7.6-11.6-12-25.2-22-40-30.4 7.6-5.2 14.8-10.4 22-15.6 2-1.2 3.6-2.4 5.2-4 11.2 7.6 23.6 12 35.6 14.4 12.4 2.4 24.4 3.6 36.8 4 12.4.4 24.4 0 36.8-2.4 12-2 24-5.6 35.2-10.8 11.2-5.6 21.6-13.2 29.6-22.8 8-9.6 13.6-22 14.8-34.8.2-6.6-.6-13.4-3-19.8zM838 533.9l.8.4c2.4-4.8 6.4-10.8 9.2-13.6 2.4-2.4 6.8-5.6 6.8-5.2 0 0 0 .8-.4 2-1.6 4.8-6.8 12.4-13.2 19.2-3.2 3.6-7.2 6.8-7.2 6s2.4-5.2 4-8.8zm-477.5 0h.8c2.4-4.8 6.4-10.4 9.2-13.6 2.4-2.4 6.4-5.6 6.8-5.2 0 0-.4 1.2-.4 2-1.6 4.8-6.8 12.4-13.2 19.2-3.2 3.6-7.2 6.8-7.2 6 0-.4 2.4-4.8 4-8.4zm-301.3-16v-.8c0 .4 0 .8.4.8h-.4zm431.3-23.2-1.6-.4c-8.8 18-24.8 43.6-36.8 60.8-1.6 2-4.4 6-6.4 8.4l-4 4.8.4-4.4c.4-15.2 4.4-36 9.6-51.2 2.4-7.2 6.8-16.8 9.6-21.6 4.4-7.2 12-14.8 16.8-17.2 1.6-.8 1.6-.8 3.6 1.2.8 1.2 3.6 4.4 5.6 7.2 2 2.8 4.4 5.6 4.8 6.4.4 1.2.4 1.2-1.6 6zm274.3 176.8 1.2.8c-21.2 10-43.6 17.6-66.4 22.4-23.2 4.8-46.4 6.8-70 6.4-11.6-.4-23.2-1.2-33.6-4.8-4.8-1.6-9.2-4.4-10.4-7.2-.8-3.2.8-7.2 4-11.2 6.8-8 16.8-14 27.2-19.2 10.4-5.2 21.6-9.2 32.8-12 22-5.6 45.6-8 68.4-6 23.2 1.6 46 7.6 66.8 17.2 1.2.4 2 1.2 3.2 1.6-7.6 4.4-15.2 8.4-23.2 12zm250-85.2c-1.2 10.8-6 21.2-13.2 30l.8-.8c-7.2 8.8-16.4 15.6-26.4 20.4-10 5.2-21.2 8.4-32.4 10-11.6 2-23.2 2.4-34.8 1.6-11.2-.8-22.8-2.4-33.6-5.6-9.6-3.2-17.6-7.2-24.8-12.8 12-10 24.4-20 36.4-30 18-15.2 36-30.8 56.4-40.8 10-5.2 20.8-8.4 32-8.8 11.2-.8 22.4 2 30 8.8 7.6 6.8 10.8 17.6 9.6 28z"/></g><g id="mark"><path class="st0" d="M170 162.7v.8h.4c-.4 0-.4-.4-.4-.8zm0 0v.8h.4c-.4 0-.4-.4-.4-.8zM601.2 205.5l-2-.4c-2.8-.8-5.6 1.2-6.4 4-.1.8-.3 1.6-.5 2.4h.1c2.8 1.2 5.2 2.4 8 3.2 1.4.7 2.8 1.1 4.4 1.5.3-1.4.6-2.8.8-4.3.4-2.8-1.6-5.6-4.4-6.4z"/><path class="st0" d="m601.2 205.5-2-.4c-2.8-.8-5.6 1.2-6.4 4-.1.8-.3 1.6-.5 2.4h.1c2.8 1.2 5.2 2.4 8 3.2 1.4.7 2.8 1.1 4.4 1.5.3-1.4.6-2.8.8-4.3.4-2.8-1.6-5.6-4.4-6.4zM656.8 279.1c.8-.4 4-7.2 9.2-20.8l3.2-8.4.8 5.2c.4 2.4 1.6 6.8 2 9.2 4 13.6 9.6 19.6 19.6 21.6 8.4 2 16.8-.4 24.8-7.2 3.2-3.2 37.6-54.4 42-60.8.4-.4.8-1.2.8-2l-1.2-2c0-3.6-4.4-5.2-6.8-2.4-4.4 6-38 56-43.2 60-3.6 3.6-8.8 6.8-10.8 7.2-1.6 0-2 0-3.6-2-3.2-3.6-4.4-8.8-7.6-26.4-1.2-6-2.4-11.2-2.4-11.6 0-.4 1.2-1.2 4.4-2.4 7.6-2.8 15.6-7.6 20-12 2.8-3.2 7.6-10.8 9.6-15.2 5.6-13.2 6-25.2.8-28.8-1.6-1.2-2.4-1.2-5.6-1.2-3.6 0-4 0-7.2 2-4 2-6.4 4.4-14.4 14.4-10 11.6-15.2 19.2-21.2 30.8-4 7.2-4.4 6.8-2-3.6.8-4.8 2.4-11.2 3.2-14.8l1.2-6.4 3.2-3.6c6.8-6.8 15.6-19.2 30.4-41.2 13.6-20.4 21.6-34.4 28.4-50 4-9.2 6-14.8 8.4-22.8 2.8-10.4 2.8-14.4.8-18.8-2.4-4.4-8-8.8-12.4-9.2-6.8-.4-18 8.4-26.8 21.6-10.8 15.6-23.2 39.2-30 57.6-5.2 14-13.2 39.2-16.8 53.6-1.2 6-2.8 11.2-3.2 12.4-.4 1.6-2.4 11.6-2.4 11.6l-1.6 7.2c-1.6 8.4-3.6 19.2-5.2 31.6-2 12-2 20.4.4 23.6 2 3.2 8.8 5.6 11.2 4zm24.8-52.4c3.6-5.6 12.4-20 15.6-24 2-2.8 4.8-6.4 6.8-8 3.6-4 10-9.6 10.8-9.6.8 0 .4 5.2-1.2 10.4-3.2 10-8.4 19.2-12.8 24-4.4 4-10.8 8-17.2 10-.8.4-2.4.8-3.2.8l.4-.8c-1.2 0-1.2 0 .8-2.8zm8.4-81.6v.4c12.8-36.8 28.4-64.4 42.4-74.8 1.6-1.2 3.2-2.4 3.6-2.4.8 0-.8 9.6-3.2 17.2-3.6 10.8-14 34-21.6 49.6-9.6 18.8-16 29.6-27.2 43.6-2.4 3.2-4.8 6.4-5.2 6.4-1.2 1.2 6.8-26.8 11.2-40z"/><path class="st0" d="M592.4 211.5c-.4 1.3-.7 2.8-1.2 4-.8 2-1.6 4.4-2.4 6.4-1.2 4.4-3.2 8.8-4.8 12.8-3.6 8-8 16-13.2 23.2-4.8 6.8-10.8 13.2-17.2 17.2-3.2 1.6-6.4 3.2-10 3.6-2 .4-3.6.4-5.6.4-1.2 0-2.4 0-3.6-.4-.8 0-1.6-.8-2.4-1.6s-1.2-2-2-3.2c-1.6-2.8-2.8-6.4-3.2-10.4-.8-4-1.2-8.4-1.2-12.8s0-8.4.4-12.8c.8-8.8 2-17.6 3.6-26.8.4-1.6.8-3.6 1.2-4.8.8-5.2 2-10.4 3.2-15.2.4-2.4.8-4.4 1.6-6.4v-1.6c1.2-4.4 2.4-8.8 3.2-13.6 2.4-9.6 2.4-10.4.4-12.8-1.6-1.6-4-3.6-6.4-4.4-1.6-.8-2.8-2-5.2-4.4-8.8-10.4-23.2-16.8-36.4-16.8-6.4 0-10.8.8-15.2 3.6-10 4.8-20.4 18-28 36-3.8 7.8-6.6 15.4-8.6 23.5-42.2 69.3-59 91.7-83.8 112.1-5.2 4.4-15.6 11.2-16.4 11.2s0-9.2 1.2-16c6.4-28.8 18-62 38.4-110.4 24-57.6 33.2-83.2 39.6-108.8 5.2-22 5.6-37.6.8-48.4-3.2-8-10-14.4-18.8-18-3.6-1.2-4.8-1.6-8.8-1.6-5.2 0-8.8.8-16 3.6-10.8 4-22 10.4-35.2 20-20 14.8-37.2 32.4-54.8 56l-4.4 6 .4-2.8c1.6-15.6.4-25.6-3.2-31.6-5.6-8-23.2-14-30.8-10.4-4.4 1.6-12.8 9.2-22.4 19.2-21.6 23.2-34.4 43.2-49.6 78-3.2 6.8-5.2 10-5.2 9.2 0-2 3.2-26.8 5.2-41.2 3.2-23.2 6.4-54 6-60.4-.4-6.4-3.6-9.6-11.6-12.4-8.8-2.8-14.8-2.4-18 1.6-2 2.4-10.4 20.8-13.6 30-5.2 15.6-6.4 22.4-13.2 86.4-1.2 11.6-2.8 27.2-3.6 34.8-3.2 28.8-4.4 43.2-4.4 58.4 0 20 2 26.4 8.4 28.8 2.4 1.2 8.4 2 12 2 3.6 0 7.6-.8 8.8-2 1.2-1.2 6-13.6 7.2-19.2 2.4-8.4 6-26.4 8.4-40 1.2-6 2-9.6 7.2-24.8 7.2-21.6 9.2-27.6 15.6-42.8 7.6-16.8 13.6-27.2 22-40.4 8.4-11.6 17.2-22.8 25.2-32 4.4-4.4 12.8-12.4 13.2-12 .4 0-3.6 11.6-6.4 18.8-7.2 18-14.8 48.8-18 67.6-1.2 8.4-1.2 23.6 0 28.4 2 6.4 4 8.8 10.8 11.2 4.4 1.6 8.4 2.4 12.8 2.4 5.2 0 6.4-.8 10-6.4 1.6-2.4 3.6-6 4.8-8.4 3.6-8.4 9.2-27.2 14.4-48 1.6-7.6 2-8.4 5.2-14.4 13.6-23.2 34-50 53.6-68.8 5.2-5.6 16-14.8 20.8-18 15.6-11.6 31.6-18.4 41.6-18h2.8l.4 1.6c1.2 4-.4 14.4-3.6 26.4-5.2 21.6-15.6 46-34.8 82.8-3.6 6.8-10 19.2-14.4 27.2-27.2 53.2-38.4 80.4-44 103.6-5.2 22.4-4.8 38 2.4 49.2 5.2 8.4 14.4 13.6 26 15.6 8.4 1.6 16.4.8 22.8-2 15.2-6.4 31.2-22.4 53.2-52.8 7.6-10.5 19.2-28.1 30.1-45.6.2 4.7.6 9 1.1 11.2 2.8 13.6 8.8 20.8 20.4 24.8 4.4 1.6 11.2 2 14.8.8 6-2 12-6.8 18.8-15.6 2.4-5.6 15.2-22.4 15.2-21.6v.8l2.4-2.4c-.4 3.6-.8 7.2-.8 10.8-.4 4.8-.4 9.6 0 14.8.4 4.8.8 10 1.6 15.2 1.2 4.8 2.8 10.4 5.6 15.6 1.6 2.8 3.2 5.2 5.6 7.2 2.8 2.4 6 4 9.2 5.2 3.2 1.2 6.8 1.2 10 1.2 2.8 0 5.6 0 8.8-.8 5.6-1.6 11.2-4 15.6-6.8 4.8-3.2 8.8-6.8 12.4-10.8 3.2-4 6-8 8.4-12.4 5.2-8.8 9.2-17.6 12.4-26.8 2-4.4 3.2-9.2 4.8-14 .8-2 1.2-4 2-6.4.3-.8.6-1.6.8-2.5-1.5-.4-3-.8-4.4-1.5-2.8-.8-5.2-2-8-3.2zm-422.4-48v-.8c0 .4 0 .8.4.8h-.4zm344.4 7.2-1.6-.4c-8.8 18-24.8 43.6-36.8 60.8-1.6 2-4.4 6-6.4 8.4l-4 4.8.4-4.4c.4-15.2 4.4-36 9.6-51.2 2.4-7.2 6.8-16.8 9.6-21.6 4.4-7.2 12-14.8 16.8-17.2 1.6-.8 1.6-.8 3.6 1.2.8 1.2 3.6 4.4 5.6 7.2 2 2.8 4.4 5.6 4.8 6.4.4 1.2.4 1.2-1.6 6z"/><path class="st0" d="m876.4 332.7-.8 2c-2.8-6-8.8-11.2-15.6-12.8-6.8-2-14-1.6-20.4 0-6.4 2-12 6-16.4 10.8-2 2.4-3.2 4.4-4.8 6.8l-1.2-1.2c-2-4-4.8-7.6-8.8-10.4s-8.8-5.2-13.2-6c-4.8-.4-9.6-.4-14 .4-4.8 1.2-9.2 3.6-12.4 7.2-3.6 3.6-5.6 8-7.2 12.4-2.8 8.8-2.8 17.6-1.6 26.4 3.2 16.8 12.4 32.4 25.6 43.6 10 8.4 22.8 14 36 15.6-8.4 5.2-18 9.2-27.6 11.6-11.6 3.2-23.6 4.8-35.2 4.8-12 0-24.4-.8-36-2-24-2.4-47.6-7.2-68-18-10.4-5.2-19.6-12-26.4-20.8s-11.2-18.8-13.2-29.6c-2.4-10.8-2.4-22.4-1.2-33.6 1.2-11.6 3.6-23.2 6.8-34.8 3.2-11.6 6.8-22.8 10.4-34.8 2-6 3.6-12 5.2-18.4.8-3.2 1.2-6.4 2-10 .4-3.6.8-7.6.4-12.4v-3.2c-.8-2.8-2.4-5.2-4.8-7.2 0-.4 0-.8-.4-1.2-4.4-4.8-11.6-9.2-21.6-12.4-2-.8-3.6-1.6-3.6-1.6s0-1.2.4-3.2c3.2-11.2 6.4-29.6 7.2-44.4.8-8.8 0-16.4-2-21.6-1.6-3.6-4.4-6.8-8.4-8.8s-6.8-2.8-11.2-2.8c-5.6 0-10.4 2.4-15.6 8-4.4 4.8-7.2 9.2-10 15.2-2.8 6.4-3.6 9.6-4.8 15.6-1.2 5.2-1.2 14.4 0 19.6 2.4 11.2 10 20.8 22.4 27.2 2 1.2 4.7 2.4 5.9 2.8.2-.8.3-1.6.5-2.4.8-2.8 3.6-4.8 6.4-4l2 .4c2.8.8 4.8 3.6 4.4 6.4-.2 1.5-.5 2.9-.8 4.3l3.6.9c.8.4 2 .4 2.8 1.2 1.2 1.2 1.6 3.2 1.6 5.2.4 2.4.4 5.2 0 8-.4 2-.8 4-.8 6.4s0 4.8-.4 8c-.8 5.2-2.4 11.2-3.6 16.8-2.8 12-5.6 23.6-7.6 36-2.4 12.4-4.4 24.8-5.2 37.6-.8 13.2 0 26.4 3.6 39.6 3.2 12.8 9.6 25.2 18.8 35.6 8.8 10 20 17.6 31.6 22.8 11.6 5.6 24 9.2 36 11.6 12.4 2.4 24.4 4 36.8 4.8 12.4.8 24.4.8 37.2.4 12.4-.4 25.2-2.4 37.2-6 13.6-4 26.8-10.4 38.4-18.8.8 0 1.6-.8 2.4-1.6 8-6 15.2-12.8 21.2-20.8 8-10 14.4-20.8 18.4-33.2 1.6-6 3.2-12.4 3.6-18.8 0-6.4-.8-13.2-4-19.2zM600.8 192.3l-.8.4c-.8 4-1.6 7.2-1.6 7.2s-.8-.4-2.4-.8c-9.2-5.2-12.4-19.2-8.4-37.2 2.8-10.8 7.6-21.6 12.4-26l1.2-1.2.8 1.6c2 5.2 2.8 12.8 2.8 22 0 10.4-.8 19.6-4 34zm270.4 176.4-.4 1.2c0-.1.1-.2.1-.4-3.6 10.5-9.9 21-16.9 30-5.2 6.8-11.6 12.8-18.4 18.4h-.8c-15.2 0-30.4-5.2-42-14.8-11.6-9.6-19.6-23.6-22.4-38-1.6-7.2-1.6-14.8.4-21.6 2.4-6.4 6.8-11.2 13.6-12.8 3.2-.8 6.8-.8 10 0 3.2.4 6 2 8.4 4 5.2 4 8.8 10.8 10.4 17.2l.4 1.2c.8 1.2 2 2 3.6 2.4 2.4.8 4.8-.8 5.6-3.2 1.6-4.8 4-10 7.2-14 3.6-4.4 8-7.6 12.8-9.2 5.2-2 10.8-2.4 16-1.2 5.2 1.2 9.2 4.4 11.6 8.8 2.4 4.8 3.2 10.4 3.2 16.4 0 5.5-1.2 11.3-2.7 16.4.1-.3.2-.6.3-.8z"/></g></svg>